<svg width="21" height="21" viewBox="0 0 21 21" fill="none" xmlns="http://www.w3.org/2000/svg">
<path d="M20.0847 10.9656C20.0847 16.4884 15.6076 20.9656 10.0847 20.9656C4.56185 20.9656 0.0847168 16.4884 0.0847168 10.9656C0.0847168 5.44271 4.56185 0.965576 10.0847 0.965576C15.6076 0.965576 20.0847 5.44271 20.0847 10.9656ZM8.92802 16.2605L16.3474 8.84114C16.5993 8.5892 16.5993 8.1807 16.3474 7.92876L15.435 7.01638C15.1831 6.76441 14.7746 6.76441 14.5226 7.01638L8.47181 13.0671L5.64685 10.2421C5.39492 9.99021 4.98641 9.99021 4.73443 10.2421L3.82206 11.1545C3.57012 11.4065 3.57012 11.815 3.82206 12.0669L8.0156 16.2605C8.26758 16.5124 8.67605 16.5124 8.92802 16.2605Z" fill="white"/>
</svg>
