<svg width="11" height="13" viewBox="0 0 11 13" fill="none" xmlns="http://www.w3.org/2000/svg">
<path d="M5.49736 0.385973C5.51851 0.505308 5.92308 2.78538 5.92308 3.65628C5.92308 4.9842 5.18798 5.93127 4.1012 6.31213L4.44231 12.3576C4.46082 12.7055 4.1726 13 3.80769 13H2.11538C1.75313 13 1.46226 12.708 1.48077 12.3576L1.82188 6.31213C0.732452 5.93127 0 4.98166 0 3.65628C0 2.78284 0.404567 0.505308 0.425721 0.385973C0.510337 -0.129456 1.62356 -0.137073 1.69231 0.413902V3.99905C1.72668 4.08538 2.09159 4.0803 2.11538 3.99905C2.1524 3.35667 2.32428 0.464683 2.32692 0.398668C2.41418 -0.129456 3.50889 -0.129456 3.59351 0.398668C3.5988 0.467223 3.76803 3.35667 3.80505 3.99905C3.82885 4.0803 4.19639 4.08538 4.22813 3.99905V0.413902C4.29688 -0.134534 5.41274 -0.129456 5.49736 0.385973ZM8.64928 7.64005L8.25264 12.3398C8.22091 12.6953 8.51442 13 8.88462 13H10.3654C10.7171 13 11 12.7283 11 12.3906V0.60941C11 0.274254 10.7171 3.62896e-05 10.3654 3.62896e-05C8.18389 3.62896e-05 4.51106 4.53225 8.64928 7.64005Z" fill="white"/>
</svg>
