<svg width="12" height="13" viewBox="0 0 12 13" fill="none" xmlns="http://www.w3.org/2000/svg">
<path d="M9.08765 4.87486H6.2572V6.29686C6.2572 7.30495 5.65573 8.12514 4.91646 8.12514C4.1772 8.12514 3.57573 7.30495 3.57573 6.29686V3.2091L2.3672 4.19941C2.00781 4.49143 1.78808 5.02214 1.78808 5.59094V6.79202L0.298367 7.96516C0.0134597 8.18862 -0.0852336 8.68632 0.0804966 9.07483L1.57021 12.5943C1.73407 12.9828 2.09905 13.1148 2.38396 12.8914L4.30941 11.3754H6.85309C7.51042 11.3754 8.04485 10.6466 8.04485 9.75027H8.3428C8.67239 9.75027 8.93868 9.38716 8.93868 8.93771V7.31257H9.08765C9.33531 7.31257 9.53456 7.04087 9.53456 6.70314V5.48429C9.53456 5.14656 9.33531 4.87486 9.08765 4.87486ZM11.838 3.92517L10.3483 0.405735C10.1844 0.0172256 9.81947 -0.114817 9.53456 0.10864L7.60911 1.62459H5.70601C5.48255 1.62459 5.26468 1.71092 5.07475 1.8709L4.45093 2.40161C4.27589 2.54888 4.17161 2.81043 4.17161 3.08975V6.29686C4.17161 6.85804 4.50493 7.31257 4.91646 7.31257C5.328 7.31257 5.66132 6.85804 5.66132 6.29686V4.06229H9.08765C9.66305 4.06229 10.1304 4.69965 10.1304 5.48429V6.20798L11.6202 5.03484C11.9051 4.80884 12.0019 4.31368 11.838 3.92517Z" fill="white"/>
</svg>
