<svg width="18" height="16" viewBox="0 0 18 16" fill="none" xmlns="http://www.w3.org/2000/svg">
	<path d="M9.88557 14.9283L9.03347 15.7417C8.67267 16.0861 8.08924 16.0861 7.73228 15.7417L0.270601 8.62285C-0.0902003 8.27845 -0.0902003 7.72155 0.270601 7.38081L7.73228 0.258301C8.09308 -0.0861003 8.6765 -0.0861003 9.03347 0.258301L9.88557 1.07167C10.2502 1.41974 10.2425 1.98763 9.87022 2.32837L5.24505 6.53446H16.2764C16.7869 6.53446 17.1976 6.9265 17.1976 7.41379V8.58622C17.1976 9.07351 16.7869 9.46554 16.2764 9.46554H5.24505L9.87022 13.6716C10.2464 14.0124 10.254 14.5803 9.88557 14.9283Z" fill="#353535" />
</svg>