<svg width="16" height="17" viewBox="0 0 16 17" fill="none" xmlns="http://www.w3.org/2000/svg">
<path d="M1.5 0.209595C1.20333 0.209595 0.913319 0.317343 0.666645 0.519215C0.419972 0.721087 0.227713 1.00802 0.114181 1.34372C0.000649929 1.67942 -0.0290551 2.04881 0.0288228 2.40519C0.0867006 2.76157 0.229562 3.08892 0.439341 3.34586C0.649119 3.60279 0.916394 3.77777 1.20737 3.84865C1.49834 3.91954 1.79994 3.88316 2.07403 3.74411C2.34811 3.60506 2.58238 3.36958 2.74721 3.06746C2.91203 2.76533 3 2.41013 3 2.04677C3 1.55952 2.84197 1.09223 2.56066 0.747692C2.27936 0.403154 1.89783 0.209595 1.5 0.209595ZM1.5 6.33353C1.20333 6.33353 0.913319 6.44128 0.666645 6.64315C0.419972 6.84502 0.227713 7.13195 0.114181 7.46765C0.000649929 7.80335 -0.0290551 8.17275 0.0288228 8.52912C0.0867006 8.8855 0.229562 9.21286 0.439341 9.46979C0.649119 9.72672 0.916394 9.9017 1.20737 9.97259C1.49834 10.0435 1.79994 10.0071 2.07403 9.86804C2.34811 9.72899 2.58238 9.49351 2.74721 9.19139C2.91203 8.88927 3 8.53407 3 8.17071C3 7.68346 2.84197 7.21616 2.56066 6.87163C2.27936 6.52709 1.89783 6.33353 1.5 6.33353ZM1.5 12.4575C1.20333 12.4575 0.913319 12.5652 0.666645 12.7671C0.419972 12.969 0.227713 13.2559 0.114181 13.5916C0.000649929 13.9273 -0.0290551 14.2967 0.0288228 14.6531C0.0867006 15.0094 0.229562 15.3368 0.439341 15.5937C0.649119 15.8507 0.916394 16.0256 1.20737 16.0965C1.49834 16.1674 1.79994 16.131 2.07403 15.992C2.34811 15.8529 2.58238 15.6174 2.74721 15.3153C2.91203 15.0132 3 14.658 3 14.2946C3 13.8074 2.84197 13.3401 2.56066 12.9956C2.27936 12.651 1.89783 12.4575 1.5 12.4575ZM15.5 13.0699H5.5C5.36739 13.0699 5.24022 13.1344 5.14645 13.2492C5.05268 13.3641 5 13.5198 5 13.6822V14.907C5 15.0695 5.05268 15.2252 5.14645 15.3401C5.24022 15.4549 5.36739 15.5194 5.5 15.5194H15.5C15.6326 15.5194 15.7598 15.4549 15.8536 15.3401C15.9473 15.2252 16 15.0695 16 14.907V13.6822C16 13.5198 15.9473 13.3641 15.8536 13.2492C15.7598 13.1344 15.6326 13.0699 15.5 13.0699ZM15.5 0.821988H5.5C5.36739 0.821988 5.24022 0.886508 5.14645 1.00135C5.05268 1.1162 5 1.27196 5 1.43438V2.65917C5 2.82158 5.05268 2.97735 5.14645 3.0922C5.24022 3.20704 5.36739 3.27156 5.5 3.27156H15.5C15.6326 3.27156 15.7598 3.20704 15.8536 3.0922C15.9473 2.97735 16 2.82158 16 2.65917V1.43438C16 1.27196 15.9473 1.1162 15.8536 1.00135C15.7598 0.886508 15.6326 0.821988 15.5 0.821988ZM15.5 6.94592H5.5C5.36739 6.94592 5.24022 7.01044 5.14645 7.12529C5.05268 7.24013 5 7.3959 5 7.55831V8.7831C5 8.94552 5.05268 9.10128 5.14645 9.21613C5.24022 9.33098 5.36739 9.39549 5.5 9.39549H15.5C15.6326 9.39549 15.7598 9.33098 15.8536 9.21613C15.9473 9.10128 16 8.94552 16 8.7831V7.55831C16 7.3959 15.9473 7.24013 15.8536 7.12529C15.7598 7.01044 15.6326 6.94592 15.5 6.94592Z" fill="#7E7E7E"/>
</svg>