<svg width="15" height="21" viewBox="0 0 15 21" fill="none" xmlns="http://www.w3.org/2000/svg">
<path d="M12.0487 0.543091H2.9356C1.85748 0.543091 0.982788 1.37885 0.982788 2.40898V18.58C0.982788 19.6101 1.85748 20.4459 2.9356 20.4459H12.0487C13.1268 20.4459 14.0015 19.6101 14.0015 18.58V2.40898C14.0015 1.37885 13.1268 0.543091 12.0487 0.543091ZM7.49216 19.202C6.77206 19.202 6.19028 18.6461 6.19028 17.958C6.19028 17.27 6.77206 16.7141 7.49216 16.7141C8.21226 16.7141 8.79403 17.27 8.79403 17.958C8.79403 18.6461 8.21226 19.202 7.49216 19.202ZM12.0487 15.0037C12.0487 15.2603 11.829 15.4702 11.5605 15.4702H3.4238C3.15529 15.4702 2.9356 15.2603 2.9356 15.0037V2.87545C2.9356 2.61889 3.15529 2.40898 3.4238 2.40898H11.5605C11.829 2.40898 12.0487 2.61889 12.0487 2.87545V15.0037Z" fill="#7E7E7E"/>
</svg>