<svg width="18" height="19" viewBox="0 0 18 19" fill="none" xmlns="http://www.w3.org/2000/svg">
<path d="M17.5914 4.43686L15.6947 0.812378C15.5252 0.487014 15.2242 0.287598 14.9027 0.287598H3.09613C2.77466 0.287598 2.47365 0.487014 2.30415 0.812378L0.407495 4.43686C-0.571518 6.30858 0.296443 8.91149 2.12588 9.20887C2.25739 9.22986 2.39182 9.24035 2.52625 9.24035C3.39129 9.24035 4.15697 8.78554 4.683 8.08234C5.20904 8.78554 5.97764 9.24035 6.83976 9.24035C7.70479 9.24035 8.47047 8.78554 8.99651 8.08234C9.52254 8.78554 10.2911 9.24035 11.1533 9.24035C12.0183 9.24035 12.784 8.78554 13.31 8.08234C13.839 8.78554 14.6046 9.24035 15.4668 9.24035C15.6041 9.24035 15.7356 9.22986 15.8671 9.20887C17.7024 8.91499 18.5733 6.31208 17.5914 4.43686ZM15.4726 10.3634C15.1804 10.3634 14.891 10.3109 14.6105 10.2304V13.722H3.38837V10.2304C3.10782 10.3074 2.8185 10.3634 2.52625 10.3634C2.35091 10.3634 2.17264 10.3494 2.00022 10.3214C1.83656 10.2934 1.67583 10.2479 1.52094 10.1955V17.0806C1.52094 17.6998 1.93885 18.2001 2.45612 18.2001H15.5486C16.0659 18.2001 16.4838 17.6998 16.4838 17.0806V10.1955C16.326 10.2514 16.1681 10.2969 16.0045 10.3214C15.8262 10.3494 15.6509 10.3634 15.4726 10.3634Z" fill="#9356DC"/>
</svg>